<?xml version="1.0" standalone="no"?>
<!DOCTYPE svg PUBLIC "-//W3C//DTD SVG 1.1//EN" "http://www.w3.org/Graphics/SVG/1.1/DTD/svg11.dtd" >
<svg xmlns="http://www.w3.org/2000/svg" xmlns:xlink="http://www.w3.org/1999/xlink" version="1.1">
<metadata>
Created by FontForge 20170731 at Sun Oct  8 12:44:04 2023
 By Aleksey,,,
Artnivora.std2022
</metadata>
<defs>
<font id="QhuertoRegular" horiz-adv-x="0" >
  <font-face 
    font-family="Qhuerto"
    font-weight="400"
    font-stretch="normal"
    units-per-em="2048"
    panose-1="0 0 0 0 0 0 0 0 0 0"
    ascent="1638"
    descent="-410"
    x-height="1024"
    cap-height="1428"
    bbox="-309 -880.18 1977 1691"
    underline-thickness="102"
    underline-position="-307"
    unicode-range="U+000A-00AD"
  />
<missing-glyph horiz-adv-x="1079" 
d="M102 1434h875v-1434h-875v1434zM160 1393l379 -633l381 633h-760zM514 717l-369 614v-1231zM541 674l-379 -631h758zM565 717l371 -621v1239z" />
    <glyph glyph-name=".notdef" horiz-adv-x="1079" 
d="M102 1434h875v-1434h-875v1434zM160 1393l379 -633l381 633h-760zM514 717l-369 614v-1231zM541 674l-379 -631h758zM565 717l371 -621v1239z" />
    <glyph glyph-name=".null" 
 />
    <glyph glyph-name=".null" 
 />
    <glyph glyph-name="nonmarkingreturn" horiz-adv-x="682" 
 />
    <glyph glyph-name="controlLF" unicode="&#xa;" 
 />
    <glyph glyph-name="controlCR" unicode="&#xd;" 
 />
    <glyph glyph-name="space" unicode=" " horiz-adv-x="638" 
 />
    <glyph glyph-name="exclam" unicode="!" horiz-adv-x="489" 
d="M225 283l-39 1199h115l-24 -1199h-52zM309 67q-26 -28 -66 -28q-39 0 -65 28q-28 26 -28 66q0 39 28 65q26 26 65 26q40 0 66 -26q27 -26 27 -65q0 -41 -27 -66z" />
    <glyph glyph-name="quotedbl" unicode="&#x22;" horiz-adv-x="548" 
d="M362 1330q-34 0 -62 26q-28 28 -26 64q0 37 26 61q28 26 63 26q37 0 61 -26q26 -24 26 -61q0 -26 -11 -45l-60 -168h-39zM163 1207l22 123q-34 0 -62 26q-29 27 -27 64q0 36 27 61q26 26 63 26q38 0 62 -26q25 -24 25 -61q0 -23 -11 -45l-61 -168h-38z" />
    <glyph glyph-name="quotedbl" unicode="&#x201d;" horiz-adv-x="548" 
d="M362 1330q-34 0 -62 26q-28 28 -26 64q0 37 26 61q28 26 63 26q37 0 61 -26q26 -24 26 -61q0 -26 -11 -45l-60 -168h-39zM163 1207l22 123q-34 0 -62 26q-29 27 -27 64q0 36 27 61q26 26 63 26q38 0 62 -26q25 -24 25 -61q0 -23 -11 -45l-61 -168h-38z" />
    <glyph glyph-name="quotedbl" unicode="&#x201c;" horiz-adv-x="548" 
d="M362 1330q-34 0 -62 26q-28 28 -26 64q0 37 26 61q28 26 63 26q37 0 61 -26q26 -24 26 -61q0 -26 -11 -45l-60 -168h-39zM163 1207l22 123q-34 0 -62 26q-29 27 -27 64q0 36 27 61q26 26 63 26q38 0 62 -26q25 -24 25 -61q0 -23 -11 -45l-61 -168h-38z" />
    <glyph glyph-name="numbersign" unicode="#" horiz-adv-x="1785" 
d="M200 901l4 27h501l91 490h26l-91 -490h408l91 490h24l-91 -490h501l-6 -27h-501l-73 -399h501l-6 -24h-501l-91 -493h-25l91 493l-407 -2l-91 -491h-27l91 491h-498l4 26h501l73 399h-499zM725 901l-73 -399h408l73 399h-408z" />
    <glyph glyph-name="dollar" unicode="$" horiz-adv-x="1251" 
d="M226 976q-54 76 -56 173q-2 85 39 157q38 69 101 112q66 46 141 67q80 23 159 23v183h26v-183q113 -6 219 -52q100 -42 169 -131l-20 -24q-30 41 -71 71q-40 30 -90 52t-101 32q-55 11 -106 11v-582q85 -36 166 -76q81 -41 153 -96q66 -53 112 -126q47 -80 44 -168
q2 -95 -40 -177q-37 -73 -105 -124q-72 -53 -152 -75q-87 -24 -178 -24v-180h-26v182q-138 11 -259 69q-125 59 -216 167l25 20q85 -99 205 -152q120 -55 245 -59v683q-120 51 -135 57q-66 28 -110 51q-84 43 -139 119zM636 66h17q73 5 132 26q61 21 110 65q49 45 75 105
q29 70 23 145q-2 59 -33 107q-32 50 -81 89q-48 40 -113 74q-64 35 -130 62v-673zM512 941q53 -25 98 -44v570q-63 -3 -128 -25q-58 -19 -105 -62q-49 -43 -73 -102q-21 -50 -11 -107q11 -56 45 -101q37 -49 94 -85q52 -32 80 -44z" />
    <glyph glyph-name="percent" unicode="%" horiz-adv-x="1439" 
d="M1066 1433h37l-731 -1433h-36zM545 872q-67 -48 -148 -45q-82 -3 -150 45q-59 44 -88 111q-30 68 -30 144t30 145q29 67 88 111q68 48 150 45q81 3 149 -45q58 -43 89 -111q30 -69 30 -145q0 -77 -30 -144t-90 -111zM254 997q16 -58 53 -101q34 -40 89 -40t89 40
q37 42 54 101q18 58 18 130q0 71 -18 131q-17 59 -54 101q-34 40 -89 40t-89 -40q-37 -42 -54 -101q-19 -70 -18 -131q2 -67 19 -130zM1280 449q29 -65 29 -144q2 -75 -29 -144q-29 -67 -89 -110q-67 -48 -149 -45q-82 -3 -149 45q-59 43 -90 110q-31 69 -29 144
q-2 75 29 144q30 67 90 111q67 47 149 44q82 3 149 -44q58 -43 89 -111zM1186 176q18 65 17 130q0 66 -18 131q-15 54 -54 100q-35 41 -89 41q-53 2 -89 -41q-36 -41 -53 -100q-19 -61 -19 -131q0 -69 19 -130q18 -60 53 -101q35 -42 89 -40q55 -2 90 40q37 42 54 101z" />
    <glyph glyph-name="ampersand" unicode="&#x26;" horiz-adv-x="1298" 
d="M466 812q-92 21 -161 86q-60 55 -86 136q-24 77 -10 159q15 83 63 150q53 71 134 111q97 46 202 46q92 3 175 -37q72 -35 121 -100q46 -61 52 -138q6 -82 -33 -151l-16 4q32 60 27 131q-5 67 -41 123q-38 60 -99 93q-69 38 -149 36h-23q-90 -3 -163 -55q-65 -49 -94 -119
q-31 -73 -29 -152q0 -78 30 -150q28 -70 85 -115q57 -47 135 -45h6v-29q-16 0 -24 1q-7 1 -22 1q-75 0 -137 -49q-61 -50 -91 -114q-32 -69 -37 -150q-6 -83 22 -157q27 -76 88 -134q67 -64 159 -81q46 -11 87 -11q86 0 167 35q82 34 144 101q65 72 92 166q32 115 11 230
q-58 6 -124.5 -15.5t-117.5 -73.5t-51 -120l-10 3q10 80 37 137.5t54 88.5t81.5 52.5t87.5 27.5t104 16q33 5 49 7l7 -120q-44 -7 -99 -5q23 -116 -8 -233q-29 -105 -99 -189q-69 -83 -165 -128q-100 -49 -213 -47h-14q-118 -3 -220 51q-86 47 -141 129q-52 82 -61 171
q-11 93 21 179q34 92 105 155q81 72 192 92z" />
    <glyph glyph-name="quotesingle" unicode="'" horiz-adv-x="372" 
d="M163 1207l22 123q-34 0 -62 26q-29 27 -27 64q0 36 27 61q26 26 63 26q38 0 62 -26q25 -24 25 -61q0 -23 -11 -45l-61 -168h-38z" />
    <glyph glyph-name="quotesingle" unicode="&#x2019;" horiz-adv-x="372" 
d="M163 1207l22 123q-34 0 -62 26q-29 27 -27 64q0 36 27 61q26 26 63 26q38 0 62 -26q25 -24 25 -61q0 -23 -11 -45l-61 -168h-38z" />
    <glyph glyph-name="quotesingle" unicode="&#x2018;" horiz-adv-x="372" 
d="M163 1207l22 123q-34 0 -62 26q-29 27 -27 64q0 36 27 61q26 26 63 26q38 0 62 -26q25 -24 25 -61q0 -23 -11 -45l-61 -168h-38z" />
    <glyph glyph-name="parenleft" unicode="(" horiz-adv-x="569" 
d="M409 1627h26q-88 -181 -128 -377q-90 -410 0 -821q43 -201 128 -376h-26q-129 179 -195 388q-64 201 -64 418q0 212 64 408q65 198 195 360z" />
    <glyph glyph-name="parenright" unicode=")" horiz-adv-x="565" 
d="M131 1658h27q128 -162 193 -360q64 -196 64 -408t-64 -418q-65 -210 -193 -388h-27q89 185 129 376q44 205 44 410t-44 410q-40 194 -129 378z" />
    <glyph glyph-name="asterisk" unicode="*" horiz-adv-x="634" 
d="M156 1127l-45 79l156 66l-156 67l45 78l135 -104l-20 170h92l-21 -170l136 104l45 -78l-156 -67l156 -66l-45 -79l-136 103l21 -170h-92l20 170z" />
    <glyph glyph-name="plus" unicode="+" horiz-adv-x="929" 
d="M109 803h334v332h43v-332h334v-45h-334v-333h-43v333h-334v45z" />
    <glyph glyph-name="comma" unicode="," horiz-adv-x="376" 
d="M187 39q-37 0 -63 26q-27 27 -26 63q0 38 26 62q26 26 63 26q36 2 62 -26q26 -24 26 -62q0 -26 -11 -45l-61 -167h-38z" />
    <glyph glyph-name="hyphen" unicode="-" horiz-adv-x="544" 
d="M476 670h-408v45h408v-45z" />
    <glyph glyph-name="period" unicode="." horiz-adv-x="366" 
d="M246 65q-26 -26 -62 -26q-37 0 -63 26q-29 27 -27 64q0 37 27 62q25 25 63 25t62 -25q26 -26 24 -62q2 -38 -24 -64z" />
    <glyph glyph-name="zero" unicode="0" horiz-adv-x="1579" 
d="M1432 725q0 -142 -42 -274q-38 -128 -123 -239q-83 -107 -202 -169q-131 -67 -277 -64q-146 -3 -277 64q-119 62 -201 169q-85 111 -123 239q-42 132 -42 274q0 141 42 274q38 128 123 239q83 108 201 170q129 66 277 63q148 3 277 -63q120 -62 202 -170
q85 -111 123 -239q42 -133 42 -274zM1306 725q0 131 -34 264q-30 122 -99 231q-64 99 -163 163q-102 65 -222 62q-119 3 -221 -62q-99 -64 -163 -163q-68 -104 -100 -231q-35 -131 -35 -264t35 -264q32 -127 100 -231q62 -98 163 -163q100 -64 221 -62q122 -2 222 62
q99 64 163 163q69 109 99 231q34 133 34 264z" />
    <glyph glyph-name="one" unicode="1" horiz-adv-x="489" 
d="M208 1260h-56v19l119 162h53v-1428h-116v1247z" />
    <glyph glyph-name="two" unicode="2" horiz-adv-x="1206" 
d="M778 722q59 62 99 142q41 87 43 188q5 144 -46 235q-51 92 -146 133q-76 32 -154 31q-61 0 -116 -13q-56 -12 -110 -38q-51 -23 -93 -59q-39 -33 -65 -77l-28 15q64 101 179 153q111 51 237 51q90 0 174 -27q82 -26 153 -82q71 -57 111 -136q45 -88 45 -190
q5 -98 -34 -191q-34 -79 -95 -143q-63 -65 -137 -109q-72 -44 -160 -87q-108 -54 -161 -80q-78 -38 -145 -84q-60 -41 -106 -101q-44 -60 -49 -134h868v-108h-904q-17 89 9 175q26 76 76 133q52 58 121 105q58 40 146 93q14 8 152 95q75 47 136 110z" />
    <glyph glyph-name="three" unicode="3" horiz-adv-x="1239" 
d="M435 766q164 1 265 54q90 42 149 126q49 74 49 162q2 88 -37 162t-110 123q-76 52 -166 50q-50 0 -103 -11t-102 -35q-44 -21 -89 -56q-40 -32 -67 -78l-28 14q64 103 174 153q110 51 231 49q110 3 207 -47q81 -43 132 -120q47 -73 52 -160q5 -89 -35 -168
q-46 -86 -132 -144q-108 -72 -234 -89q144 5 272 -49q98 -41 164 -127q56 -74 67 -169q11 -91 -22 -173q-36 -87 -103 -148q-75 -65 -175 -84q-62 -12 -94 -15q-52 -5 -95 -5q-135 0 -259 48q-130 51 -227 157l24 22q90 -99 215 -148q116 -48 239 -49q100 -3 191 43
q73 38 122 105q45 63 60 140q14 79 -5 151q-21 79 -79 138q-67 67 -161 100q-120 42 -249 39h-41v39z" />
    <glyph glyph-name="four" unicode="4" horiz-adv-x="1187" 
d="M851 1272l-694 -924h694v924zM928 1441h49v-1093h60v-37h-60v-300h-126v300h-736v39z" />
    <glyph glyph-name="five" unicode="5" horiz-adv-x="1146" 
d="M220 1319l-22 -547q28 45 69 82q41 36 90 60q49 23 106 37q53 13 113 13q80 0 156 -26q76 -25 137 -85q62 -62 96 -147q39 -105 36 -218q3 -112 -42 -213q-43 -92 -112 -155q-71 -63 -156 -94q-84 -31 -178 -31q-110 0 -204 44q-99 46 -162 136l25 19q61 -81 150 -126
q82 -41 168 -41q74 0 140 30q68 30 119 88q54 65 83 145q33 95 31 198q2 98 -29 185q-25 72 -78 133q-47 52 -112 81q-62 27 -130 27q-97 -2 -180 -52q-96 -60 -146 -159l-28 6l34 732h726l-2 -122h-698z" />
    <glyph glyph-name="six" unicode="6" horiz-adv-x="1280" 
d="M153 806q11 122 43 231q33 111 95 207q59 94 152 150q110 65 235 65q100 0 188 -44q95 -50 145 -138l-25 -14q-48 80 -132 125q-75 40 -160 40q-79 0 -144 -32q-73 -34 -118 -97q-50 -68 -83 -153q-34 -86 -52 -181q-20 -103 -24 -188q-5 -95 -3 -178q6 76 31 143
q28 76 76 132q51 60 125 99q81 42 168 42q108 6 205 -38q86 -41 147 -114q58 -71 86 -163q29 -92 27 -189q0 -95 -32 -188q-30 -90 -93 -164q-66 -74 -155 -113q-102 -46 -214 -41q-105 0 -199 51q-86 48 -147 129q-65 86 -97 183q-34 99 -45 215q-11 111 0 223zM299 521v1
q-5 -117 32 -221q35 -102 113 -179q83 -80 195 -92q7 -2 20 -2h21q101 -2 172 68q75 75 110 174q39 107 41 226q5 118 -31 226q-33 103 -109 173q-79 73 -187 70q-112 3 -203 -66q-85 -66 -127 -163q-44 -99 -47 -215z" />
    <glyph glyph-name="seven" unicode="7" horiz-adv-x="1044" 
d="M104 1319l-2 122h821v-122l-545 -1308h-47l546 1308h-773z" />
    <glyph glyph-name="eight" unicode="8" horiz-adv-x="1204" 
d="M215 1143q-2 76 33 142q29 56 88 100q57 40 125 60q72 20 143 20q76 -2 137 -21q72 -22 127 -63q57 -42 93 -106q40 -72 37 -153q2 -63 -23 -123q-21 -51 -60 -90t-86 -64q-55 -30 -101 -47q60 -15 117 -44q56 -28 102 -74q45 -45 73 -107q29 -68 34 -144
q9 -101 -28 -192q-34 -79 -103 -137q-68 -58 -152 -84q-85 -27 -175 -27q-84 0 -165 24q-82 25 -145 75t-102 126q-40 79 -38 174q-2 83 31 154q30 62 83 108t117 73q67 30 132 47q-58 23 -109 56q-52 33 -94 81q-44 52 -66 106q-27 60 -25 130zM369 1007q33 -57 83 -96
q51 -41 112 -63q62 -23 124 -38q88 35 138 119q53 88 52 185q2 76 -21 148q-18 57 -58 101q-35 38 -87 57q-51 19 -108 19q-111 5 -193 -70q-75 -71 -75 -226q-1 -70 33 -136zM281 511q-23 -69 -18 -143q3 -80 35 -153q27 -61 77 -111q44 -43 106 -65q60 -22 119 -22
q58 0 115 20q56 20 102 58q50 42 79 96q36 65 43 135q18 96 -12 188q-26 71 -86 119q-60 47 -133 71q-84 29 -155 50q-61 -10 -117 -43q-57 -35 -95 -83q-40 -51 -60 -117z" />
    <glyph glyph-name="nine" unicode="9" horiz-adv-x="1282" 
d="M146 955q2 128 58 244q56 115 162 186q123 78 269 72q108 0 200 -49q87 -48 148 -129q66 -87 98 -182q34 -99 47 -214q10 -109 1 -223q-9 -123 -41 -232q-32 -111 -93 -208q-59 -95 -151 -150q-56 -35 -126 -52q-65 -17 -141 -17q-113 0 -218 44q-103 42 -160 134l25 17
q52 -85 144 -125q91 -40 186 -40q90 0 172 35q78 32 128 99q53 71 83 154q30 85 49 182q19 96 23 189q5 100 2 175q-3 -83 -37 -163q-32 -75 -87 -133q-56 -57 -130 -89q-81 -34 -164 -33q-154 0 -253 75q-100 74 -149 189q-50 116 -45 244zM279 965q-3 -120 32 -227
q32 -101 108 -174q81 -74 188 -68q113 -3 203 67q81 65 123 164q44 105 47 216q5 113 -33 220q-36 103 -116 178q-85 80 -196 92q-6 2 -18 2h-18q-102 2 -172 -70q-76 -76 -109 -175q-38 -110 -39 -225z" />
    <glyph glyph-name="colon" unicode=":" horiz-adv-x="411" 
d="M271 60q-24 -26 -62 -26q-37 0 -63 26q-27 25 -27 63t27 63q26 26 63 26q38 0 62 -26q26 -24 26 -63t-26 -63zM265 729q-24 -26 -63 -26q-37 -2 -63 26q-28 26 -26 63q0 38 26 62q25 25 63 25t63 -25q26 -24 26 -62q2 -37 -26 -63z" />
    <glyph glyph-name="semicolon" unicode=";" horiz-adv-x="411" 
d="M268 727q-24 -26 -62 -26q-37 0 -63 26t-26 63q0 38 26 62q27 25 63 25q38 0 62 -25q25 -24 25 -62q0 -36 -25 -63zM184 -84l22 123q-37 0 -63 26t-26 63q0 38 26 62q26 26 63 26q36 2 62 -26q25 -24 25 -62q0 -26 -11 -45l-60 -167h-38z" />
    <glyph glyph-name="equal" unicode="=" horiz-adv-x="847" 
d="M80 495v43h687v-43h-687zM80 791v43h687v-43h-687z" />
    <glyph glyph-name="question" unicode="?" horiz-adv-x="841" 
d="M49 -153l730 1795h37l-730 -1795h-37z" />
    <glyph glyph-name="at" unicode="@" horiz-adv-x="1931" 
d="M1315 558h1q-5 -55 32 -100q33 -35 81 -33q56 2 104 31q60 36 101 95q51 72 77 159q32 103 29 217q1 157 -58 312q-53 134 -154 226q-106 95 -242 138q-153 49 -313 47q-178 2 -339 -73q-141 -65 -243 -181q-96 -110 -146 -254q-49 -142 -49 -290q0 -149 50 -290
q48 -139 148 -253q106 -118 247 -181q167 -75 348 -75v-40q-196 0 -375 79q-150 67 -265 194q-106 121 -155 269q-51 147 -49 308q2 157 56 305q54 150 158 265q108 119 259 185q169 74 356 68q223 -1 379 -68q143 -56 252 -172q97 -104 141 -242q44 -135 44 -274
q3 -130 -38 -255q-33 -98 -98 -178q-55 -67 -129 -103q-64 -31 -134 -32q-75 -2 -132 45q-60 50 -55 130q-37 -75 -110 -107q-80 -39 -166 -37q-82 -1 -158 34q-69 34 -117 92q-49 59 -72 135q-24 80 -24 162q-3 111 34 210q29 79 91 144q54 54 127 83q72 28 144 28
q71 0 138 -26q66 -24 119 -71l71 89h33zM1196 1157q-41 42 -94 65q-54 24 -113 24t-112 -24q-57 -27 -97 -78q-48 -65 -67 -140q-26 -101 -20 -212q3 -66 19 -123q16 -60 51 -117q32 -54 84 -89q56 -36 119 -34q75 0 139 38q63 35 91 104v586z" />
    <glyph glyph-name="A" unicode="A" horiz-adv-x="1179" 
d="M969 0l23 28l-125 367h-1l-12 35l-84 243q-33 -59 -94 -91q-64 -34 -142 -58q-124 -39 -152 -49q-73 -24 -129 -80q-20 -20 -31 -42l-122 -353h-71l48 63l456 1296l-67 68q61 1 159 1l482 -1358h1q25 -56 45 -70h-184zM552 1304l-288 -831q34 14 86 30t123.5 36.5
t90.5 26.5q154 48 193 144z" />
    <glyph glyph-name="A" unicode="&#xc5;" horiz-adv-x="1179" 
d="M969 0l23 28l-125 367h-1l-12 35l-84 243q-33 -59 -94 -91q-64 -34 -142 -58q-124 -39 -152 -49q-73 -24 -129 -80q-20 -20 -31 -42l-122 -353h-71l48 63l456 1296l-67 68q61 1 159 1l482 -1358h1q25 -56 45 -70h-184zM552 1304l-288 -831q34 14 86 30t123.5 36.5
t90.5 26.5q154 48 193 144z" />
    <glyph glyph-name="A" unicode="&#xc4;" horiz-adv-x="1179" 
d="M969 0l23 28l-125 367h-1l-12 35l-84 243q-33 -59 -94 -91q-64 -34 -142 -58q-124 -39 -152 -49q-73 -24 -129 -80q-20 -20 -31 -42l-122 -353h-71l48 63l456 1296l-67 68q61 1 159 1l482 -1358h1q25 -56 45 -70h-184zM552 1304l-288 -831q34 14 86 30t123.5 36.5
t90.5 26.5q154 48 193 144z" />
    <glyph glyph-name="A" unicode="&#xc3;" horiz-adv-x="1179" 
d="M969 0l23 28l-125 367h-1l-12 35l-84 243q-33 -59 -94 -91q-64 -34 -142 -58q-124 -39 -152 -49q-73 -24 -129 -80q-20 -20 -31 -42l-122 -353h-71l48 63l456 1296l-67 68q61 1 159 1l482 -1358h1q25 -56 45 -70h-184zM552 1304l-288 -831q34 14 86 30t123.5 36.5
t90.5 26.5q154 48 193 144z" />
    <glyph glyph-name="A" unicode="&#xc2;" horiz-adv-x="1179" 
d="M969 0l23 28l-125 367h-1l-12 35l-84 243q-33 -59 -94 -91q-64 -34 -142 -58q-124 -39 -152 -49q-73 -24 -129 -80q-20 -20 -31 -42l-122 -353h-71l48 63l456 1296l-67 68q61 1 159 1l482 -1358h1q25 -56 45 -70h-184zM552 1304l-288 -831q34 14 86 30t123.5 36.5
t90.5 26.5q154 48 193 144z" />
    <glyph glyph-name="A" unicode="&#xc1;" horiz-adv-x="1179" 
d="M969 0l23 28l-125 367h-1l-12 35l-84 243q-33 -59 -94 -91q-64 -34 -142 -58q-124 -39 -152 -49q-73 -24 -129 -80q-20 -20 -31 -42l-122 -353h-71l48 63l456 1296l-67 68q61 1 159 1l482 -1358h1q25 -56 45 -70h-184zM552 1304l-288 -831q34 14 86 30t123.5 36.5
t90.5 26.5q154 48 193 144z" />
    <glyph glyph-name="A" unicode="&#xc0;" horiz-adv-x="1179" 
d="M969 0l23 28l-125 367h-1l-12 35l-84 243q-33 -59 -94 -91q-64 -34 -142 -58q-124 -39 -152 -49q-73 -24 -129 -80q-20 -20 -31 -42l-122 -353h-71l48 63l456 1296l-67 68q61 1 159 1l482 -1358h1q25 -56 45 -70h-184zM552 1304l-288 -831q34 14 86 30t123.5 36.5
t90.5 26.5q154 48 193 144z" />
    <glyph glyph-name="B" unicode="B" horiz-adv-x="1216" 
d="M173 1342q0 9 -7 21.5t-14 21.5t-20 24t-15 18h183q4 0 128 3t201.5 -1t132.5 -18q96 -24 158.5 -87t74.5 -159q9 -73 -7 -130t-54 -96t-80.5 -64.5t-101.5 -47.5q32 -8 59 -18q3 -1 9 -3.5t9 -3.5q103 -35 176 -110q69 -71 100 -166q28 -91 14 -184q-12 -89 -65 -169
q-57 -84 -148 -130t-192 -43h-569l1 1q27 17 27 49v1292zM302 38h301q113 -5 208 55q79 52 122 137q42 88 41 179q0 92 -40 178q-1 3 -4.5 9t-5.5 9q-3 6 -4 7q-27 47 -69 84q-79 73 -183 102q-11 -3 -31 -10t-28 -10q-9 -3 -31 -11t-34 -12q-10 -3 -27.5 -10t-24.5 -9
q-22 -8 -53 -25q-26 -15 -47 -30q-45 -34 -70 -83q-17 -35 -22 -66v-482q0 -4 2 -12zM300 618q26 56 77 93q1 1 4 3t4 3q22 14 68 38q37 18 66 29q64 24 144 59q75 32 119 62.5t66 75.5q43 97 9.5 201t-120.5 164q-28 19 -62 30q-43 13 -91 13h-284v-771z" />
    <glyph glyph-name="C" unicode="C" horiz-adv-x="1388" 
d="M98 749v1q0 133 41 262q41 126 121 230q83 107 199 167q79 40 167 63q90 23 180 23q78 0 151 -18q78 -17 141 -52q66 -34 124 -91q63 -64 100 -136l-29 -8q-70 124 -197 192q-118 62 -251 62q-133 -1 -252 -60t-199 -164q-75 -97 -114 -220q-38 -123 -38 -251t38 -251
q39 -123 114 -221q76 -102 189 -160q55 -31 126 -47q66 -15 134 -15q134 0 252 62q128 68 198 191l29 -8q-75 -149 -222 -229q-66 -36 -139 -54q-69 -17 -151 -17q-91 0 -181 23q-88 22 -169 66q-118 60 -200 167q-80 104 -121 230q-41 129 -41 263z" />
    <glyph glyph-name="C" unicode="&#xc7;" horiz-adv-x="1388" 
d="M98 749v1q0 133 41 262q41 126 121 230q83 107 199 167q79 40 167 63q90 23 180 23q78 0 151 -18q78 -17 141 -52q66 -34 124 -91q63 -64 100 -136l-29 -8q-70 124 -197 192q-118 62 -251 62q-133 -1 -252 -60t-199 -164q-75 -97 -114 -220q-38 -123 -38 -251t38 -251
q39 -123 114 -221q76 -102 189 -160q55 -31 126 -47q66 -15 134 -15q134 0 252 62q128 68 198 191l29 -8q-75 -149 -222 -229q-66 -36 -139 -54q-69 -17 -151 -17q-91 0 -181 23q-88 22 -169 66q-118 60 -200 167q-80 104 -121 230q-41 129 -41 263z" />
    <glyph glyph-name="D" unicode="D" horiz-adv-x="1337" 
d="M173 1342q0 9 -7 22t-14 22t-20 24t-15 18h398q210 0 348 -66q132 -60 222 -169q80 -101 116 -232q32 -120 34 -249q0 -124 -34 -249q-35 -127 -118 -230q-93 -111 -221 -168q-139 -65 -347 -65h-370l2 1q26 18 26 49v1292zM302 36h213q177 0 290 62q109 59 176 160
q64 100 87 219q23 120 23 236q0 121 -24 238q-23 117 -89 217q-67 100 -177 159q-113 62 -286 62h-215v-1338q0 -5 2 -15z" />
    <glyph glyph-name="E" unicode="E" horiz-adv-x="1060" 
d="M173 1342q0 9 -7 22t-14 22t-20 24t-15 18h895v-39h-711v-604h565v-39h-565v-695q0 -9 1 -13h710v-38h-867l1 1q27 17 27 49v1292z" />
    <glyph glyph-name="E" unicode="&#xcb;" horiz-adv-x="1060" 
d="M173 1342q0 9 -7 22t-14 22t-20 24t-15 18h895v-39h-711v-604h565v-39h-565v-695q0 -9 1 -13h710v-38h-867l1 1q27 17 27 49v1292z" />
    <glyph glyph-name="E" unicode="&#xca;" horiz-adv-x="1060" 
d="M173 1342q0 9 -7 22t-14 22t-20 24t-15 18h895v-39h-711v-604h565v-39h-565v-695q0 -9 1 -13h710v-38h-867l1 1q27 17 27 49v1292z" />
    <glyph glyph-name="E" unicode="&#xc9;" horiz-adv-x="1060" 
d="M173 1342q0 9 -7 22t-14 22t-20 24t-15 18h895v-39h-711v-604h565v-39h-565v-695q0 -9 1 -13h710v-38h-867l1 1q27 17 27 49v1292z" />
    <glyph glyph-name="E" unicode="&#xc8;" horiz-adv-x="1060" 
d="M173 1342q0 9 -7 22t-14 22t-20 24t-15 18h895v-39h-711v-604h565v-39h-565v-695q0 -9 1 -13h710v-38h-867l1 1q27 17 27 49v1292z" />
    <glyph glyph-name="F" unicode="F" horiz-adv-x="1046" 
d="M173 50v1292q0 9 -7 22t-14 22t-20 24t-15 18h898v-39h-715v-604h568v-39h-568v-695q0 -32 26 -50l2 -1h-183l2 1q26 18 26 49z" />
    <glyph glyph-name="G" unicode="G" horiz-adv-x="1439" 
d="M98 708q0 136 42 264q41 128 125 230q88 106 209 163q139 65 296 62q8 0 24 -2q8 -1 24 -1q136 -8 254 -74q130 -75 200 -206l-30 -9q-71 120 -193 184q-113 59 -241 59q-126 2 -239 -53.5t-188 -156.5q-73 -99 -105 -212q-36 -120 -35 -242q2 -125 36 -243
q31 -113 103 -211q71 -95 173 -151q112 -59 239 -56q122 -2 232 43q84 33 151 97v496q0 26 -17 41q-17 17 -43 17h-455v37h643v-735q0 -31 25 -47l2 -1h-183h1q27 16 27 48v94q-76 -67 -169 -100q-115 -42 -234 -43q-156 -5 -293 58q-122 56 -211 160q-84 100 -127 228
q-43 131 -43 262z" />
    <glyph glyph-name="H" unicode="H" horiz-adv-x="1310" 
d="M173 50v1292q0 9 -7 22t-14 22t-20 24t-15 18h183v-643h716v557q0 9 -7 22t-14 22t-20 24t-15 18h185v-1377q0 -33 25 -50l2 -1h-183l1 1q26 18 26 49v696h-716v-695q0 -32 26 -50l2 -1h-182l1 1q26 18 26 49z" />
    <glyph glyph-name="I" unicode="I" horiz-adv-x="464" 
d="M173 1342q0 9 -7 22t-14 22t-20 24t-15 18h183v-1377q0 -32 26 -50l2 -1h-182l1 1q26 18 26 49v1292z" />
    <glyph glyph-name="I" unicode="&#xcf;" horiz-adv-x="464" 
d="M173 1342q0 9 -7 22t-14 22t-20 24t-15 18h183v-1377q0 -32 26 -50l2 -1h-182l1 1q26 18 26 49v1292z" />
    <glyph glyph-name="I" unicode="&#xce;" horiz-adv-x="464" 
d="M173 1342q0 9 -7 22t-14 22t-20 24t-15 18h183v-1377q0 -32 26 -50l2 -1h-182l1 1q26 18 26 49v1292z" />
    <glyph glyph-name="I" unicode="&#xcd;" horiz-adv-x="464" 
d="M173 1342q0 9 -7 22t-14 22t-20 24t-15 18h183v-1377q0 -32 26 -50l2 -1h-182l1 1q26 18 26 49v1292z" />
    <glyph glyph-name="I" unicode="&#xcc;" horiz-adv-x="464" 
d="M173 1342q0 9 -7 22t-14 22t-20 24t-15 18h183v-1377q0 -32 26 -50l2 -1h-182l1 1q26 18 26 49v1292z" />
    <glyph glyph-name="J" unicode="J" horiz-adv-x="761" 
d="M476 183l1 1186q0 9 -7 22t-14 22t-20 24t-15 18h183v-1273q-5 -106 -53 -186.5t-143 -113.5q-135 -45 -266 11q-70 29 -119 87l21 19q55 -67 139 -91.5t166 3.5q36 14 61 37.5t37.5 45.5t19 59.5t8 61t1.5 68.5z" />
    <glyph glyph-name="K" unicode="K" horiz-adv-x="1138" 
d="M328 0h-183l1 1q27 17 27 49v1292q0 9 -7 22t-14 22t-20 24t-15 18h183v-862l678 862h44l-531 -680l574 -704q24 -26 47 -42h1h-43l-122 -2h-17l2 1l8 7l-527 643l-113 -144v-456q0 -33 25 -50z" />
    <glyph glyph-name="L" unicode="L" horiz-adv-x="1052" 
d="M181 1286h1q1 41 -20 78t-56 59l-8 5h211v-1390h726v-38h-854v1286z" />
    <glyph glyph-name="M" unicode="M" horiz-adv-x="1658" 
d="M310 1449l480 -1209l544 1158q-6 7 -46 51h202v-1399q0 -33 28 -49l2 -1h-109l2 1q28 16 28 49v1252l-603 -1281h-19l-509 1288v-1237q0 -33 27 -49l3 -2h-200h1q29 16 29 50v1292q0 9 -7.5 22t-15.5 22.5t-21.5 23.5t-16.5 18h201z" />
    <glyph glyph-name="N" unicode="N" horiz-adv-x="1517" 
d="M171 53v1292q0 9 -7 21.5t-14 21.5t-20 24t-15 18h184v-10l926 -1308v1230q0 9 -7 22t-14 22t-20 24t-15 18h184v-1377q0 -32 25 -49l2 -2h-183l2 1q17 12 24 35l-924 1307v-1290q0 -33 25 -50l2 -1h-182l1 1q26 18 26 50z" />
    <glyph glyph-name="N" unicode="&#xd1;" horiz-adv-x="1517" 
d="M171 53v1292q0 9 -7 21.5t-14 21.5t-20 24t-15 18h184v-10l926 -1308v1230q0 9 -7 22t-14 22t-20 24t-15 18h184v-1377q0 -32 25 -49l2 -2h-183l2 1q17 12 24 35l-924 1307v-1290q0 -33 25 -50l2 -1h-182l1 1q26 18 26 50z" />
    <glyph glyph-name="O" unicode="O" horiz-adv-x="1511" 
d="M143 1020q41 132 125 238q86 108 206 169q134 64 282.5 64t282.5 -64q118 -61 205 -169q84 -106 125 -238q86 -274 0 -547q-41 -132 -125 -240q-87 -108 -205 -169q-134 -64 -282.5 -64t-282.5 64q-125 64 -206 169q-84 108 -125 240q-86 273 0 547zM273 483
q28 -123 97 -231q62 -100 161 -164q102 -64 225 -61q121 -3 225 61q100 65 162 164q69 108 97 231q65 263 0 527q-28 121 -97 230q-65 100 -162 163q-105 65 -225 62q-121 3 -225 -62q-96 -62 -161 -163q-69 -109 -97 -230q-65 -264 0 -527z" />
    <glyph glyph-name="O" unicode="&#xd8;" horiz-adv-x="1511" 
d="M143 1020q41 132 125 238q86 108 206 169q134 64 282.5 64t282.5 -64q118 -61 205 -169q84 -106 125 -238q86 -274 0 -547q-41 -132 -125 -240q-87 -108 -205 -169q-134 -64 -282.5 -64t-282.5 64q-125 64 -206 169q-84 108 -125 240q-86 273 0 547zM273 483
q28 -123 97 -231q62 -100 161 -164q102 -64 225 -61q121 -3 225 61q100 65 162 164q69 108 97 231q65 263 0 527q-28 121 -97 230q-65 100 -162 163q-105 65 -225 62q-121 3 -225 -62q-96 -62 -161 -163q-69 -109 -97 -230q-65 -264 0 -527z" />
    <glyph glyph-name="O" unicode="&#xd6;" horiz-adv-x="1511" 
d="M143 1020q41 132 125 238q86 108 206 169q134 64 282.5 64t282.5 -64q118 -61 205 -169q84 -106 125 -238q86 -274 0 -547q-41 -132 -125 -240q-87 -108 -205 -169q-134 -64 -282.5 -64t-282.5 64q-125 64 -206 169q-84 108 -125 240q-86 273 0 547zM273 483
q28 -123 97 -231q62 -100 161 -164q102 -64 225 -61q121 -3 225 61q100 65 162 164q69 108 97 231q65 263 0 527q-28 121 -97 230q-65 100 -162 163q-105 65 -225 62q-121 3 -225 -62q-96 -62 -161 -163q-69 -109 -97 -230q-65 -264 0 -527z" />
    <glyph glyph-name="O" unicode="&#xd5;" horiz-adv-x="1511" 
d="M143 1020q41 132 125 238q86 108 206 169q134 64 282.5 64t282.5 -64q118 -61 205 -169q84 -106 125 -238q86 -274 0 -547q-41 -132 -125 -240q-87 -108 -205 -169q-134 -64 -282.5 -64t-282.5 64q-125 64 -206 169q-84 108 -125 240q-86 273 0 547zM273 483
q28 -123 97 -231q62 -100 161 -164q102 -64 225 -61q121 -3 225 61q100 65 162 164q69 108 97 231q65 263 0 527q-28 121 -97 230q-65 100 -162 163q-105 65 -225 62q-121 3 -225 -62q-96 -62 -161 -163q-69 -109 -97 -230q-65 -264 0 -527z" />
    <glyph glyph-name="O" unicode="&#xd4;" horiz-adv-x="1511" 
d="M143 1020q41 132 125 238q86 108 206 169q134 64 282.5 64t282.5 -64q118 -61 205 -169q84 -106 125 -238q86 -274 0 -547q-41 -132 -125 -240q-87 -108 -205 -169q-134 -64 -282.5 -64t-282.5 64q-125 64 -206 169q-84 108 -125 240q-86 273 0 547zM273 483
q28 -123 97 -231q62 -100 161 -164q102 -64 225 -61q121 -3 225 61q100 65 162 164q69 108 97 231q65 263 0 527q-28 121 -97 230q-65 100 -162 163q-105 65 -225 62q-121 3 -225 -62q-96 -62 -161 -163q-69 -109 -97 -230q-65 -264 0 -527z" />
    <glyph glyph-name="O" unicode="&#xd3;" horiz-adv-x="1511" 
d="M143 1020q41 132 125 238q86 108 206 169q134 64 282.5 64t282.5 -64q118 -61 205 -169q84 -106 125 -238q86 -274 0 -547q-41 -132 -125 -240q-87 -108 -205 -169q-134 -64 -282.5 -64t-282.5 64q-125 64 -206 169q-84 108 -125 240q-86 273 0 547zM273 483
q28 -123 97 -231q62 -100 161 -164q102 -64 225 -61q121 -3 225 61q100 65 162 164q69 108 97 231q65 263 0 527q-28 121 -97 230q-65 100 -162 163q-105 65 -225 62q-121 3 -225 -62q-96 -62 -161 -163q-69 -109 -97 -230q-65 -264 0 -527z" />
    <glyph glyph-name="O" unicode="&#xd2;" horiz-adv-x="1511" 
d="M143 1020q41 132 125 238q86 108 206 169q134 64 282.5 64t282.5 -64q118 -61 205 -169q84 -106 125 -238q86 -274 0 -547q-41 -132 -125 -240q-87 -108 -205 -169q-134 -64 -282.5 -64t-282.5 64q-125 64 -206 169q-84 108 -125 240q-86 273 0 547zM273 483
q28 -123 97 -231q62 -100 161 -164q102 -64 225 -61q121 -3 225 61q100 65 162 164q69 108 97 231q65 263 0 527q-28 121 -97 230q-65 100 -162 163q-105 65 -225 62q-121 3 -225 -62q-96 -62 -161 -163q-69 -109 -97 -230q-65 -264 0 -527z" />
    <glyph glyph-name="P" unicode="P" horiz-adv-x="1060" 
d="M860 1092q0 77 -33 143q-36 70 -100 111q-77 46 -165 43h-262v-594h262q88 -3 165 43q64 41 100 111q33 66 33 143zM173 1342q0 9 -7 22t-14 22t-20 24t-15 18h502q110 5 210 -50q82 -47 127 -125q43 -75 43 -161t-43 -161q-46 -79 -127 -125q-100 -55 -210 -50h-319
v-705q0 -32 26 -50l2 -1h-183l2 1q26 18 26 49v1292z" />
    <glyph glyph-name="Q" unicode="Q" horiz-adv-x="1572" 
d="M1219 1075q-28 123 -95 230q-63 100 -159 163q-101 64 -222 61q-119 3 -220 -61q-94 -62 -158 -163q-66 -107 -95 -230q-64 -263 0 -527q29 -124 95 -231q46 -76 117 -133q-15 39 -12 81q3 53 40 90q40 38 89 50q44 11 90 6q166 -8 284 -127q24 -22 69 -69q54 53 92 119
q41 70 65 145q23 73 38 162q13 81 13 170q0 137 -31 264zM142 1085q39 130 123 238q83 107 202 169q131 64 277 64t277 -64q119 -62 201 -169q84 -108 123 -238q41 -130 41 -274q0 -97 -19 -188q-17 -85 -57 -177q-39 -86 -94 -154q-54 -69 -130 -123q51 -49 111 -83
q73 -38 155 -35q33 0 73 5q38 5 85 17l6 -16q-61 -30 -121 -44q-57 -13 -106 -13q-82 -2 -154 37q-70 40 -122 89q-131 -62 -270 -61q-145 -3 -276 64q-119 62 -202 169q-84 110 -123 239q-85 274 0 548zM608 369q-42 -9 -71 -40q-28 -28 -31 -67q-2 -67 39 -122
q91 -51 198 -49q61 0 126 19q61 19 108 52l-78 81q-54 58 -100 91t-104 40q-46 5 -87 -5z" />
    <glyph glyph-name="R" unicode="R" horiz-adv-x="1181" 
d="M863 1092q0 73 -34 143q-36 71 -99 111q-77 46 -165 43h-265v-594h264q46 0 86 10q49 12 80 33q64 43 99 111q34 68 34 143zM544 756h-244v-705q0 -31 26 -49l2 -2h-182l1 1q26 17 26 50v1291q0 9 -7 22t-14 22t-20 24t-15 18h502q109 3 205 -47q78 -41 126 -117
q46 -72 50 -153q4 -80 -30 -157q-38 -78 -108 -128q-84 -59 -185 -67l417 -715l12 -12q18 -18 34 -30h1h-2l-41 -1h-57l-65 -1h-15v1q6 4 9 7z" />
    <glyph glyph-name="S" unicode="S" horiz-adv-x="1138" 
d="M112 1129q-2 83 39 158q38 68 101 113q68 49 141 69q199 56 391 -25q110 -43 182 -138l-20 -22q-30 41 -71 71q-42 31 -89 52q-46 20 -103 31q-50 10 -106 10q-75 0 -141 -20q-66 -18 -117 -65q-48 -42 -73 -104q-20 -53 -11 -107q10 -54 46 -101q42 -55 93 -86
q48 -29 120 -59q86 -37 145 -64q72 -33 149 -74q70 -37 133 -93q59 -53 96 -119q38 -72 36 -155q2 -86 -34 -164.5t-103 -133.5q-69 -54 -147 -77q-81 -26 -174 -26q-149 1 -284.5 64t-232.5 176l24 20q95 -109 223 -161t270 -52q73 5 132 26q63 22 111 65q47 43 74 106
q30 71 24 144q-1 58 -37 111q-40 57 -88 93q-50 38 -122 75q-58 30 -137 64q-87 38 -133 56q-70 29 -112 51q-86 44 -139 119q-56 78 -56 172z" />
    <glyph glyph-name="T" unicode="T" horiz-adv-x="1015" 
d="M442 1329q0 25 -17.5 42.5t-42.5 17.5h-366v39h982v-39h-426v-1338q0 -32 26 -50l2 -1h-183h2q18 12 23 35v1294z" />
    <glyph glyph-name="U" unicode="U" horiz-adv-x="1243" 
d="M1047 1454h48l-2 -977q5 -237 -121 -357t-357 -120q-89 2 -171 27q-85 25 -148 78q-68 61 -103 145q-42 108 -39 227v650h2v242q0 9 -7 21.5t-14 21.5t-20 24t-15 18h184v-978q-2 -104 35 -201q29 -72 89 -125q52 -46 122 -65q68 -18 139 -18t138 18q69 19 120 64
q58 53 85 126q36 103 35 202v977z" />
    <glyph glyph-name="U" unicode="&#xdc;" horiz-adv-x="1243" 
d="M1047 1454h48l-2 -977q5 -237 -121 -357t-357 -120q-89 2 -171 27q-85 25 -148 78q-68 61 -103 145q-42 108 -39 227v650h2v242q0 9 -7 21.5t-14 21.5t-20 24t-15 18h184v-978q-2 -104 35 -201q29 -72 89 -125q52 -46 122 -65q68 -18 139 -18t138 18q69 19 120 64
q58 53 85 126q36 103 35 202v977z" />
    <glyph glyph-name="U" unicode="&#xdb;" horiz-adv-x="1243" 
d="M1047 1454h48l-2 -977q5 -237 -121 -357t-357 -120q-89 2 -171 27q-85 25 -148 78q-68 61 -103 145q-42 108 -39 227v650h2v242q0 9 -7 21.5t-14 21.5t-20 24t-15 18h184v-978q-2 -104 35 -201q29 -72 89 -125q52 -46 122 -65q68 -18 139 -18t138 18q69 19 120 64
q58 53 85 126q36 103 35 202v977z" />
    <glyph glyph-name="U" unicode="&#xda;" horiz-adv-x="1243" 
d="M1047 1454h48l-2 -977q5 -237 -121 -357t-357 -120q-89 2 -171 27q-85 25 -148 78q-68 61 -103 145q-42 108 -39 227v650h2v242q0 9 -7 21.5t-14 21.5t-20 24t-15 18h184v-978q-2 -104 35 -201q29 -72 89 -125q52 -46 122 -65q68 -18 139 -18t138 18q69 19 120 64
q58 53 85 126q36 103 35 202v977z" />
    <glyph glyph-name="U" unicode="&#xd9;" horiz-adv-x="1243" 
d="M1047 1454h48l-2 -977q5 -237 -121 -357t-357 -120q-89 2 -171 27q-85 25 -148 78q-68 61 -103 145q-42 108 -39 227v650h2v242q0 9 -7 21.5t-14 21.5t-20 24t-15 18h184v-978q-2 -104 35 -201q29 -72 89 -125q52 -46 122 -65q68 -18 139 -18t138 18q69 19 120 64
q58 53 85 126q36 103 35 202v977z" />
    <glyph glyph-name="V" unicode="V" horiz-adv-x="1294" 
d="M106 1355q-6 18 -21 28l-65 45h201l501 -1270l491 1270h45l-554 -1428h-67z" />
    <glyph glyph-name="W" unicode="W" horiz-adv-x="2013" 
d="M1077 1080l135 348h44l-157 -405l341 -871l493 1276h44l-553 -1428h-67l-328 840l-325 -840h-67l-530 1355q-6 17 -22 28l-65 45h202l494 -1286l290 754l71 183v1z" />
    <glyph glyph-name="X" unicode="X" horiz-adv-x="1177" 
d="M126 1353q-6 10 -17 18l-86 58h212l402 -641l400 641h42l-420 -676q18 -28 129 -214.5t200 -327t127 -180.5q22 -22 35 -31q-35 1 -94.5 1h-94.5v1h1q2 1 5 3.5t4 3.5l-389 618l-386 -626h-83q41 29 79 71l368 590z" />
    <glyph glyph-name="Y" unicode="Y" horiz-adv-x="1095" 
d="M117 1353q-5 10 -19 19l-84 56h213l406 -694l397 694h41l-422 -739v-638q0 -32 26 -50l1 -1h-182l1 1q26 18 26 49v624z" />
    <glyph glyph-name="Y" unicode="&#x178;" horiz-adv-x="1095" 
d="M117 1353q-5 10 -19 19l-84 56h213l406 -694l397 694h41l-422 -739v-638q0 -32 26 -50l1 -1h-182l1 1q26 18 26 49v624z" />
    <glyph glyph-name="Y" unicode="&#xdd;" horiz-adv-x="1095" 
d="M117 1353q-5 10 -19 19l-84 56h213l406 -694l397 694h41l-422 -739v-638q0 -32 26 -50l1 -1h-182l1 1q26 18 26 49v624z" />
    <glyph glyph-name="Z" unicode="Z" horiz-adv-x="1126" 
d="M992 38h85v-38h-1032v1h-16h1q22 18 39 37l808 1258q20 32 3 62q-18 31 -53 31h-735l1 39h980v-51l-856 -1339h775z" />
    <glyph glyph-name="bracketleft" unicode="[" horiz-adv-x="456" 
d="M435 -368h-271v1849h270v-40h-142v-1769h143v-40z" />
    <glyph glyph-name="bracketright" unicode="]" horiz-adv-x="456" 
d="M293 -368h-273v40h144v1769h-141v40h270v-1849z" />
    <glyph glyph-name="asciicircum" unicode="^" horiz-adv-x="557" 
d="M90 1319l189 154l184 -148v-63l-184 143l-189 -143v57z" />
    <glyph glyph-name="underscore" unicode="_" horiz-adv-x="923" 
d="M862 54h-803v30h803v-30z" />
    <glyph glyph-name="a" unicode="a" horiz-adv-x="1005" 
d="M862 758v-688q0 -32 25 -49l2 -2h-182l1 1q26 17 26 50v91q-55 -78 -140 -119q-100 -49 -209 -49q-47 0 -101 13q-82 19 -136 79q-47 53 -58 124q-9 71 20 136q32 72 101 111q46 28 109 50q57 21 117 39q30 9 114 37q55 17 98 46q41 27 68 72q23 41 25 91t-19 100.5
t-61 77.5q-65 44 -140.5 47.5t-140 -27t-115 -89t-69.5 -130.5l-37 8q17 68 57 123q38 51 87 86q47 34 107 51q59 16 114 16q68 0 126 -19q57 -18 107 -58q48 -39 75 -93q31 -59 29 -126zM734 663q-25 -43 -71 -72t-98.5 -45.5t-106 -32t-106 -41t-86.5 -61.5
q-33 -38 -44 -87q-11 -52 -2 -101q10 -54 38 -94q29 -43 76 -64q28 -14 51 -18q22 -5 55 -5q52 0 107 19q56 20 96 50q42 30 71 74q12 17 20 37v441z" />
    <glyph glyph-name="a" unicode="&#xe5;" horiz-adv-x="1005" 
d="M862 758v-688q0 -32 25 -49l2 -2h-182l1 1q26 17 26 50v91q-55 -78 -140 -119q-100 -49 -209 -49q-47 0 -101 13q-82 19 -136 79q-47 53 -58 124q-9 71 20 136q32 72 101 111q46 28 109 50q57 21 117 39q30 9 114 37q55 17 98 46q41 27 68 72q23 41 25 91t-19 100.5
t-61 77.5q-65 44 -140.5 47.5t-140 -27t-115 -89t-69.5 -130.5l-37 8q17 68 57 123q38 51 87 86q47 34 107 51q59 16 114 16q68 0 126 -19q57 -18 107 -58q48 -39 75 -93q31 -59 29 -126zM734 663q-25 -43 -71 -72t-98.5 -45.5t-106 -32t-106 -41t-86.5 -61.5
q-33 -38 -44 -87q-11 -52 -2 -101q10 -54 38 -94q29 -43 76 -64q28 -14 51 -18q22 -5 55 -5q52 0 107 19q56 20 96 50q42 30 71 74q12 17 20 37v441z" />
    <glyph glyph-name="a" unicode="&#xe4;" horiz-adv-x="1005" 
d="M862 758v-688q0 -32 25 -49l2 -2h-182l1 1q26 17 26 50v91q-55 -78 -140 -119q-100 -49 -209 -49q-47 0 -101 13q-82 19 -136 79q-47 53 -58 124q-9 71 20 136q32 72 101 111q46 28 109 50q57 21 117 39q30 9 114 37q55 17 98 46q41 27 68 72q23 41 25 91t-19 100.5
t-61 77.5q-65 44 -140.5 47.5t-140 -27t-115 -89t-69.5 -130.5l-37 8q17 68 57 123q38 51 87 86q47 34 107 51q59 16 114 16q68 0 126 -19q57 -18 107 -58q48 -39 75 -93q31 -59 29 -126zM734 663q-25 -43 -71 -72t-98.5 -45.5t-106 -32t-106 -41t-86.5 -61.5
q-33 -38 -44 -87q-11 -52 -2 -101q10 -54 38 -94q29 -43 76 -64q28 -14 51 -18q22 -5 55 -5q52 0 107 19q56 20 96 50q42 30 71 74q12 17 20 37v441z" />
    <glyph glyph-name="a" unicode="&#xe3;" horiz-adv-x="1005" 
d="M862 758v-688q0 -32 25 -49l2 -2h-182l1 1q26 17 26 50v91q-55 -78 -140 -119q-100 -49 -209 -49q-47 0 -101 13q-82 19 -136 79q-47 53 -58 124q-9 71 20 136q32 72 101 111q46 28 109 50q57 21 117 39q30 9 114 37q55 17 98 46q41 27 68 72q23 41 25 91t-19 100.5
t-61 77.5q-65 44 -140.5 47.5t-140 -27t-115 -89t-69.5 -130.5l-37 8q17 68 57 123q38 51 87 86q47 34 107 51q59 16 114 16q68 0 126 -19q57 -18 107 -58q48 -39 75 -93q31 -59 29 -126zM734 663q-25 -43 -71 -72t-98.5 -45.5t-106 -32t-106 -41t-86.5 -61.5
q-33 -38 -44 -87q-11 -52 -2 -101q10 -54 38 -94q29 -43 76 -64q28 -14 51 -18q22 -5 55 -5q52 0 107 19q56 20 96 50q42 30 71 74q12 17 20 37v441z" />
    <glyph glyph-name="a" unicode="&#xe2;" horiz-adv-x="1005" 
d="M862 758v-688q0 -32 25 -49l2 -2h-182l1 1q26 17 26 50v91q-55 -78 -140 -119q-100 -49 -209 -49q-47 0 -101 13q-82 19 -136 79q-47 53 -58 124q-9 71 20 136q32 72 101 111q46 28 109 50q57 21 117 39q30 9 114 37q55 17 98 46q41 27 68 72q23 41 25 91t-19 100.5
t-61 77.5q-65 44 -140.5 47.5t-140 -27t-115 -89t-69.5 -130.5l-37 8q17 68 57 123q38 51 87 86q47 34 107 51q59 16 114 16q68 0 126 -19q57 -18 107 -58q48 -39 75 -93q31 -59 29 -126zM734 663q-25 -43 -71 -72t-98.5 -45.5t-106 -32t-106 -41t-86.5 -61.5
q-33 -38 -44 -87q-11 -52 -2 -101q10 -54 38 -94q29 -43 76 -64q28 -14 51 -18q22 -5 55 -5q52 0 107 19q56 20 96 50q42 30 71 74q12 17 20 37v441z" />
    <glyph glyph-name="a" unicode="&#xe1;" horiz-adv-x="1005" 
d="M862 758v-688q0 -32 25 -49l2 -2h-182l1 1q26 17 26 50v91q-55 -78 -140 -119q-100 -49 -209 -49q-47 0 -101 13q-82 19 -136 79q-47 53 -58 124q-9 71 20 136q32 72 101 111q46 28 109 50q57 21 117 39q30 9 114 37q55 17 98 46q41 27 68 72q23 41 25 91t-19 100.5
t-61 77.5q-65 44 -140.5 47.5t-140 -27t-115 -89t-69.5 -130.5l-37 8q17 68 57 123q38 51 87 86q47 34 107 51q59 16 114 16q68 0 126 -19q57 -18 107 -58q48 -39 75 -93q31 -59 29 -126zM734 663q-25 -43 -71 -72t-98.5 -45.5t-106 -32t-106 -41t-86.5 -61.5
q-33 -38 -44 -87q-11 -52 -2 -101q10 -54 38 -94q29 -43 76 -64q28 -14 51 -18q22 -5 55 -5q52 0 107 19q56 20 96 50q42 30 71 74q12 17 20 37v441z" />
    <glyph glyph-name="a" unicode="&#xe0;" horiz-adv-x="1005" 
d="M862 758v-688q0 -32 25 -49l2 -2h-182l1 1q26 17 26 50v91q-55 -78 -140 -119q-100 -49 -209 -49q-47 0 -101 13q-82 19 -136 79q-47 53 -58 124q-9 71 20 136q32 72 101 111q46 28 109 50q57 21 117 39q30 9 114 37q55 17 98 46q41 27 68 72q23 41 25 91t-19 100.5
t-61 77.5q-65 44 -140.5 47.5t-140 -27t-115 -89t-69.5 -130.5l-37 8q17 68 57 123q38 51 87 86q47 34 107 51q59 16 114 16q68 0 126 -19q57 -18 107 -58q48 -39 75 -93q31 -59 29 -126zM734 663q-25 -43 -71 -72t-98.5 -45.5t-106 -32t-106 -41t-86.5 -61.5
q-33 -38 -44 -87q-11 -52 -2 -101q10 -54 38 -94q29 -43 76 -64q28 -14 51 -18q22 -5 55 -5q52 0 107 19q56 20 96 50q42 30 71 74q12 17 20 37v441z" />
    <glyph glyph-name="b" unicode="b" horiz-adv-x="1150" 
d="M148 1346q0 9 -7 22t-14 22t-20 24t-15 18h184v-529q52 67 130 101q92 42 192 40q70 0 129 -17q69 -19 121 -58q106 -72 153 -191q51 -122 49 -252q0 -128 -53 -251q-49 -118 -155 -190q-120 -83 -264 -83q-175 0 -302 119v-66q0 -32 25 -49l3 -2h-183l1 1q26 17 26 50
v1291zM276 844v-662q60 -80 156.5 -117.5t197 -17t165.5 98.5q65 80 92 179q30 105 28 218q-1 105 -37 212q-33 100 -105 169q-74 68 -168.5 79t-181.5 -32t-147 -127z" />
    <glyph glyph-name="c" unicode="c" horiz-adv-x="964" 
d="M272 755q-34 -103 -36 -213q-3 -107 28 -217q28 -102 91 -180q43 -54 111 -83q61 -26 126 -26q38 0 72 7q51 11 97 35q66 34 111 91l19 -31l-19 -20q-54 -51 -123 -80q-76 -33 -161 -36h-16q-146 0 -264 83q-104 70 -154 189q-53 122 -54 252q-1 127 50 252
q47 119 153 191q52 39 120 58q58 16 114 17h15q97 1 193 -41q41 -19 72 -43t55 -55l23 -30q1 -1 -5 -5t-12 -7l-6 -3q-46 66 -119 106q-58 33 -127 42q-26 2 -38 2q-55 0 -110 -22q-57 -23 -101 -64q-75 -71 -105 -169z" />
    <glyph glyph-name="c" unicode="&#xe7;" horiz-adv-x="964" 
d="M272 755q-34 -103 -36 -213q-3 -107 28 -217q28 -102 91 -180q43 -54 111 -83q61 -26 126 -26q38 0 72 7q51 11 97 35q66 34 111 91l19 -31l-19 -20q-54 -51 -123 -80q-76 -33 -161 -36h-16q-146 0 -264 83q-104 70 -154 189q-53 122 -54 252q-1 127 50 252
q47 119 153 191q52 39 120 58q58 16 114 17h15q97 1 193 -41q41 -19 72 -43t55 -55l23 -30q1 -1 -5 -5t-12 -7l-6 -3q-46 66 -119 106q-58 33 -127 42q-26 2 -38 2q-55 0 -110 -22q-57 -23 -101 -64q-75 -71 -105 -169z" />
    <glyph glyph-name="d" unicode="d" horiz-adv-x="1150" 
d="M1002 1346v-1291q0 -33 26 -50l1 -1h-183l3 2q25 17 25 49v66q-62 -58 -140 -89t-162 -30q-146 0 -264 83q-106 72 -155 190q-51 120 -53 251q-2 130 49 252q48 120 153 191q55 39 121 58q65 17 129 17q99 2 193 -40q76 -33 129 -101v529h184q-2 -3 -15 -18t-20 -24
t-14 -22t-7 -22zM874 184v672q-50 70 -121 110q-79 44 -165 44q-58 0 -110 -21q-55 -22 -101 -65q-75 -71 -105 -169q-34 -103 -36 -212q-3 -108 28 -218q25 -98 91 -179q65 -79 165.5 -98.5t197 18.5t156.5 118z" />
    <glyph glyph-name="e" unicode="e" horiz-adv-x="1024" 
d="M271 755q-33 -98 -36 -213q-2 -95 21 -188q485 99 604 287q30 47 37 95.5t-7.5 89t-43 76t-71 59.5t-90 37.5t-102 11t-105.5 -21.5q-60 -24 -101 -64q-74 -71 -106 -169zM302 969q116 85 277 80.5t263 -94.5q72 -63 85.5 -157.5t-37.5 -175.5q-127 -200 -624 -303
q28 -98 89 -174q43 -54 111 -83q61 -26 126 -26q38 0 72 7q49 10 96 35q67 34 112 91l19 -31l-19 -20q-54 -51 -123 -80q-76 -33 -162 -36h-15q-146 0 -264 83q-106 71 -155 189q-53 123 -53 252q-2 130 49 252q49 117 153 191z" />
    <glyph glyph-name="e" unicode="&#xeb;" horiz-adv-x="1024" 
d="M271 755q-33 -98 -36 -213q-2 -95 21 -188q485 99 604 287q30 47 37 95.5t-7.5 89t-43 76t-71 59.5t-90 37.5t-102 11t-105.5 -21.5q-60 -24 -101 -64q-74 -71 -106 -169zM302 969q116 85 277 80.5t263 -94.5q72 -63 85.5 -157.5t-37.5 -175.5q-127 -200 -624 -303
q28 -98 89 -174q43 -54 111 -83q61 -26 126 -26q38 0 72 7q49 10 96 35q67 34 112 91l19 -31l-19 -20q-54 -51 -123 -80q-76 -33 -162 -36h-15q-146 0 -264 83q-106 71 -155 189q-53 123 -53 252q-2 130 49 252q49 117 153 191z" />
    <glyph glyph-name="e" unicode="&#xea;" horiz-adv-x="1024" 
d="M271 755q-33 -98 -36 -213q-2 -95 21 -188q485 99 604 287q30 47 37 95.5t-7.5 89t-43 76t-71 59.5t-90 37.5t-102 11t-105.5 -21.5q-60 -24 -101 -64q-74 -71 -106 -169zM302 969q116 85 277 80.5t263 -94.5q72 -63 85.5 -157.5t-37.5 -175.5q-127 -200 -624 -303
q28 -98 89 -174q43 -54 111 -83q61 -26 126 -26q38 0 72 7q49 10 96 35q67 34 112 91l19 -31l-19 -20q-54 -51 -123 -80q-76 -33 -162 -36h-15q-146 0 -264 83q-106 71 -155 189q-53 123 -53 252q-2 130 49 252q49 117 153 191z" />
    <glyph glyph-name="e" unicode="&#xe9;" horiz-adv-x="1024" 
d="M271 755q-33 -98 -36 -213q-2 -95 21 -188q485 99 604 287q30 47 37 95.5t-7.5 89t-43 76t-71 59.5t-90 37.5t-102 11t-105.5 -21.5q-60 -24 -101 -64q-74 -71 -106 -169zM302 969q116 85 277 80.5t263 -94.5q72 -63 85.5 -157.5t-37.5 -175.5q-127 -200 -624 -303
q28 -98 89 -174q43 -54 111 -83q61 -26 126 -26q38 0 72 7q49 10 96 35q67 34 112 91l19 -31l-19 -20q-54 -51 -123 -80q-76 -33 -162 -36h-15q-146 0 -264 83q-106 71 -155 189q-53 123 -53 252q-2 130 49 252q49 117 153 191z" />
    <glyph glyph-name="e" unicode="&#xe8;" horiz-adv-x="1024" 
d="M271 755q-33 -98 -36 -213q-2 -95 21 -188q485 99 604 287q30 47 37 95.5t-7.5 89t-43 76t-71 59.5t-90 37.5t-102 11t-105.5 -21.5q-60 -24 -101 -64q-74 -71 -106 -169zM302 969q116 85 277 80.5t263 -94.5q72 -63 85.5 -157.5t-37.5 -175.5q-127 -200 -624 -303
q28 -98 89 -174q43 -54 111 -83q61 -26 126 -26q38 0 72 7q49 10 96 35q67 34 112 91l19 -31l-19 -20q-54 -51 -123 -80q-76 -33 -162 -36h-15q-146 0 -264 83q-106 71 -155 189q-53 123 -53 252q-2 130 49 252q49 117 153 191z" />
    <glyph glyph-name="f" unicode="f" horiz-adv-x="653" 
d="M203 1024q0 311 37 401q23 62 70 107q41 41 100 61q114 36 216 9.5t169 -108.5l-26 -23q-53 67 -135.5 94t-162.5 -2q-44 -18 -72 -49q-36 -41 -50 -86q-16 -46 -20.5 -110t-1 -171.5t3.5 -122.5h288v-39h-288v-914q0 -32 26 -50l1 -1h-182l1 1q26 18 26 49v915h-150v39
h150z" />
    <glyph glyph-name="g" unicode="g" horiz-adv-x="1146" 
d="M175 793v-1q63 71 153 108q108 44 223 41q36 0 120 6q226 18 353 129l80 -21q-41 -54 -165.5 -90.5t-218.5 -43.5q99 -22 169 -92q71 -63 106 -154q33 -86 21 -178q-12 -93 -67 -169q-54 -72 -132 -113q50 -24 87 -66q40 -44 52 -102q11 -52 -12 -99q-26 -52 -83 -71
q-73 -25 -141 -31q-79 -7 -167 -12q-79 -3 -175 -11q-77 -6 -159 -31q-69 -21 -123 -68q-54 -51 -65 -125q-24 -98 14 -196q33 -79 100 -136q63 -52 145 -82q72 -26 151 -34l39 -3q24 -2 36 -2q109 -1 219 34q87 29 159 88q61 49 97 123q32 67 31 138q-2 74 -35 134
q-37 66 -104 110l16 23q104 -58 140 -171q36 -109 -4 -215q-49 -119 -157 -190q-116 -83 -315 -98q-18 -2 -28 -2h-27q-126 -3 -251 44q-98 37 -175 114q-66 65 -99 157q-30 83 -22 174q6 89 59 162q50 64 119 98q71 34 158 50q86 16 177 24q93 8 171 12q76 5 143 19
q57 15 80.5 46t14.5 64.5t-36.5 64.5t-64.5 47q-109 -46 -231 -43q-65 0 -128 12q-55 12 -109 35l-22 10q-84 44 -138 117q-49 67 -65 154q-14 84 7 164q24 87 79 148zM221 548q-2 -92 37 -178q75 -169 293 -169q216 0 293 169q38 84 36 178q0 93 -36 177q-31 72 -92 116.5
t-131.5 54t-141 -5t-130.5 -58.5t-91 -107q-40 -85 -37 -177z" />
    <glyph glyph-name="h" unicode="h" horiz-adv-x="1105" 
d="M302 20h-184l2 1q26 18 26 49v1292q0 9 -7 22t-14 22t-20 24t-15 18h184v-555q47 72 127.5 115t166.5 47t172 -19q63 -20 114 -60q62 -49 86.5 -109.5t24.5 -143.5v-652q0 -33 25 -50l2 -1h-183l2 1q26 17 26 49v649v14q-2 116 -18 162q-30 82 -133 117q-46 13 -98 12.5
t-106 -20.5t-98.5 -49.5t-74.5 -74t-35 -94.5v-715q0 -33 25 -50z" />
    <glyph glyph-name="i" unicode="i" horiz-adv-x="428" 
d="M161 1170q-24 24 -22 57q-2 32 22 56q25 25 57 23q33 0 56 -23q25 -23 23 -56q2 -32 -23 -57q-23 -23 -56 -23q-32 -2 -57 23zM154 938q0 9 -7 22t-14 22t-20 24t-15 18h184v-953q0 -33 25 -50l3 -1h-183l1 1q26 17 26 49v868z" />
    <glyph glyph-name="i" unicode="&#xef;" horiz-adv-x="428" 
d="M161 1170q-24 24 -22 57q-2 32 22 56q25 25 57 23q33 0 56 -23q25 -23 23 -56q2 -32 -23 -57q-23 -23 -56 -23q-32 -2 -57 23zM154 938q0 9 -7 22t-14 22t-20 24t-15 18h184v-953q0 -33 25 -50l3 -1h-183l1 1q26 17 26 49v868z" />
    <glyph glyph-name="i" unicode="&#xee;" horiz-adv-x="428" 
d="M161 1170q-24 24 -22 57q-2 32 22 56q25 25 57 23q33 0 56 -23q25 -23 23 -56q2 -32 -23 -57q-23 -23 -56 -23q-32 -2 -57 23zM154 938q0 9 -7 22t-14 22t-20 24t-15 18h184v-953q0 -33 25 -50l3 -1h-183l1 1q26 17 26 49v868z" />
    <glyph glyph-name="i" unicode="&#xed;" horiz-adv-x="428" 
d="M161 1170q-24 24 -22 57q-2 32 22 56q25 25 57 23q33 0 56 -23q25 -23 23 -56q2 -32 -23 -57q-23 -23 -56 -23q-32 -2 -57 23zM154 938q0 9 -7 22t-14 22t-20 24t-15 18h184v-953q0 -33 25 -50l3 -1h-183l1 1q26 17 26 49v868z" />
    <glyph glyph-name="i" unicode="&#xec;" horiz-adv-x="428" 
d="M161 1170q-24 24 -22 57q-2 32 22 56q25 25 57 23q33 0 56 -23q25 -23 23 -56q2 -32 -23 -57q-23 -23 -56 -23q-32 -2 -57 23zM154 938q0 9 -7 22t-14 22t-20 24t-15 18h184v-953q0 -33 25 -50l3 -1h-183l1 1q26 17 26 49v868z" />
    <glyph glyph-name="j" unicode="j" horiz-adv-x="425" 
d="M156 1215q-24 24 -22 57q-2 32 22 56q25 25 57 23q33 0 56 -23q25 -23 23 -56q2 -32 -23 -57q-22 -22 -56 -22q-33 -2 -57 22zM150 -88v1074q0 9 -7 21.5t-14.5 22t-20 23.5t-15.5 18h184v-1174q0 -183 -100 -279q-71 -67 -177 -81t-194 25q-66 27 -115 83l20 24
q37 -46 98 -73q100 -47 204 -10q25 9 44.5 21.5t33.5 28.5t24.5 30.5t16.5 37l10 37.5t5.5 42t2 41.5t0.5 44.5v43z" />
    <glyph glyph-name="k" unicode="k" horiz-adv-x="1007" 
d="M146 1360q0 9 -7 22t-14 22t-20 24t-15 18h184v-1069l596 647h47l-414 -450l416 -511q23 -25 46 -41l2 -1h-3h-41l-122 -1h-16h2l3.5 3.5t4.5 3.5l-374 457l62 67l-83 -91l-126 -136v-255q0 -32 25 -49l3 -2h-183l1 1q26 17 26 50v1291z" />
    <glyph glyph-name="l" unicode="l" horiz-adv-x="423" 
d="M148 1310q0 9 -7 22t-14 22t-20 24t-15 18h184v-1377q0 -32 25 -49l3 -2h-183l1 1q26 17 26 50v1291z" />
    <glyph glyph-name="m" unicode="m" horiz-adv-x="1812" 
d="M1538 837v-1q-4 16 -11 37q-19 49 -57 87q-37 34 -84 49q-59 21 -126 12t-125 -36t-101.5 -78t-55.5 -114v-722q0 -33 25 -50l2 -1h-182l1 1q26 18 26 49v748q-1 21 -11 57q-19 52 -57 87q-35 32 -85 50q-47 13 -101 12.5t-109.5 -22t-100 -52.5t-73 -78.5t-28.5 -100.5
v-698q0 -32 25 -49l2 -2h-183l1 1q27 17 27 50v868q0 9 -7 21.5t-14.5 22t-20 23.5t-15.5 18h185v-132q54 83 144 123q89 39 186 39q109 0 204 -50t135 -149q49 101 149 152q96 47 202 47q73 0 134 -20q27 -8 49 -19q18 -8 50 -30v37h128v-953q0 -33 25 -50l2 -1h-183l1 1
q27 17 27 49v767z" />
    <glyph glyph-name="n" unicode="n" horiz-adv-x="1114" 
d="M168 22h-39l1 1q26 17 26 50v868q0 9 -7 21.5t-14 21.5t-20 24t-15 18h184v-134q53 82 141.5 123t191.5 41q72 0 133 -20q65 -20 115 -60q51 -42 80 -97q32 -65 31 -135v-673q0 -33 25 -50l2 -1h-183l1 1q27 17 27 50v648q-3 214 -135 281q-98 49 -226 3
q-109 -40 -166 -121q-37 -52 -37 -106v-703q0 -32 25 -49l3 -2h-28v-2h-116v2z" />
    <glyph glyph-name="n" unicode="&#xf1;" horiz-adv-x="1114" 
d="M168 22h-39l1 1q26 17 26 50v868q0 9 -7 21.5t-14 21.5t-20 24t-15 18h184v-134q53 82 141.5 123t191.5 41q72 0 133 -20q65 -20 115 -60q51 -42 80 -97q32 -65 31 -135v-673q0 -33 25 -50l2 -1h-183l1 1q27 17 27 50v648q-3 214 -135 281q-98 49 -226 3
q-109 -40 -166 -121q-37 -52 -37 -106v-703q0 -32 25 -49l3 -2h-28v-2h-116v2z" />
    <glyph glyph-name="o" unicode="o" horiz-adv-x="1146" 
d="M889 764q-26 76 -75.5 130t-109.5 77.5t-127 22.5t-127.5 -26.5t-112.5 -78t-80 -125.5q-84 -242 -1 -482q25 -70 74 -123t108.5 -82t126.5 -32.5t128 18.5t114 78.5t83 140.5q41 117 38 241q0 124 -39 241zM154 777q52 119 157 195q116 83 261 78q158 0 263 -78
q106 -79 157 -195q52 -122 52 -255t-52 -254q-51 -118 -157 -196q-105 -78 -263 -78q-145 -5 -261 78q-105 76 -159 196q-54 119 -52 254q0 132 54 255z" />
    <glyph glyph-name="o" unicode="&#xf8;" horiz-adv-x="1146" 
d="M889 764q-26 76 -75.5 130t-109.5 77.5t-127 22.5t-127.5 -26.5t-112.5 -78t-80 -125.5q-84 -242 -1 -482q25 -70 74 -123t108.5 -82t126.5 -32.5t128 18.5t114 78.5t83 140.5q41 117 38 241q0 124 -39 241zM154 777q52 119 157 195q116 83 261 78q158 0 263 -78
q106 -79 157 -195q52 -122 52 -255t-52 -254q-51 -118 -157 -196q-105 -78 -263 -78q-145 -5 -261 78q-105 76 -159 196q-54 119 -52 254q0 132 54 255z" />
    <glyph glyph-name="o" unicode="&#xf6;" horiz-adv-x="1146" 
d="M889 764q-26 76 -75.5 130t-109.5 77.5t-127 22.5t-127.5 -26.5t-112.5 -78t-80 -125.5q-84 -242 -1 -482q25 -70 74 -123t108.5 -82t126.5 -32.5t128 18.5t114 78.5t83 140.5q41 117 38 241q0 124 -39 241zM154 777q52 119 157 195q116 83 261 78q158 0 263 -78
q106 -79 157 -195q52 -122 52 -255t-52 -254q-51 -118 -157 -196q-105 -78 -263 -78q-145 -5 -261 78q-105 76 -159 196q-54 119 -52 254q0 132 54 255z" />
    <glyph glyph-name="o" unicode="&#xf5;" horiz-adv-x="1146" 
d="M889 764q-26 76 -75.5 130t-109.5 77.5t-127 22.5t-127.5 -26.5t-112.5 -78t-80 -125.5q-84 -242 -1 -482q25 -70 74 -123t108.5 -82t126.5 -32.5t128 18.5t114 78.5t83 140.5q41 117 38 241q0 124 -39 241zM154 777q52 119 157 195q116 83 261 78q158 0 263 -78
q106 -79 157 -195q52 -122 52 -255t-52 -254q-51 -118 -157 -196q-105 -78 -263 -78q-145 -5 -261 78q-105 76 -159 196q-54 119 -52 254q0 132 54 255z" />
    <glyph glyph-name="o" unicode="&#xf4;" horiz-adv-x="1146" 
d="M889 764q-26 76 -75.5 130t-109.5 77.5t-127 22.5t-127.5 -26.5t-112.5 -78t-80 -125.5q-84 -242 -1 -482q25 -70 74 -123t108.5 -82t126.5 -32.5t128 18.5t114 78.5t83 140.5q41 117 38 241q0 124 -39 241zM154 777q52 119 157 195q116 83 261 78q158 0 263 -78
q106 -79 157 -195q52 -122 52 -255t-52 -254q-51 -118 -157 -196q-105 -78 -263 -78q-145 -5 -261 78q-105 76 -159 196q-54 119 -52 254q0 132 54 255z" />
    <glyph glyph-name="o" unicode="&#xf3;" horiz-adv-x="1146" 
d="M889 764q-26 76 -75.5 130t-109.5 77.5t-127 22.5t-127.5 -26.5t-112.5 -78t-80 -125.5q-84 -242 -1 -482q25 -70 74 -123t108.5 -82t126.5 -32.5t128 18.5t114 78.5t83 140.5q41 117 38 241q0 124 -39 241zM154 777q52 119 157 195q116 83 261 78q158 0 263 -78
q106 -79 157 -195q52 -122 52 -255t-52 -254q-51 -118 -157 -196q-105 -78 -263 -78q-145 -5 -261 78q-105 76 -159 196q-54 119 -52 254q0 132 54 255z" />
    <glyph glyph-name="o" unicode="&#xf2;" horiz-adv-x="1146" 
d="M889 764q-26 76 -75.5 130t-109.5 77.5t-127 22.5t-127.5 -26.5t-112.5 -78t-80 -125.5q-84 -242 -1 -482q25 -70 74 -123t108.5 -82t126.5 -32.5t128 18.5t114 78.5t83 140.5q41 117 38 241q0 124 -39 241zM154 777q52 119 157 195q116 83 261 78q158 0 263 -78
q106 -79 157 -195q52 -122 52 -255t-52 -254q-51 -118 -157 -196q-105 -78 -263 -78q-145 -5 -261 78q-105 76 -159 196q-54 119 -52 254q0 132 54 255z" />
    <glyph glyph-name="p" unicode="p" horiz-adv-x="1169" 
d="M156 -353v1291q0 9 -7 22t-14 22t-20 24t-15 18h184v-136q54 78 140 116q94 42 193 40q64 0 129 -17q65 -16 122 -58q72 -48 114 -117q44 -71 66 -155q21 -84 21 -171q0 -90 -23 -171q-22 -81 -70 -153q-46 -70 -114 -117q-120 -83 -265 -83q-86 0 -167 32
q-80 32 -146 98v-485q0 -31 26 -49l2 -2h-183l1 1q26 17 26 50zM284 203q57 -86 155.5 -129t202.5 -25.5t171 97.5q65 80 92 179q31 110 28 218q-2 109 -36 212q-36 106 -113 170.5t-165.5 75.5t-180.5 -33t-154 -140v-625z" />
    <glyph glyph-name="q" unicode="q" horiz-adv-x="1169" 
d="M1013 938v-1291q0 -33 26 -50l1 -1h-183l3 2q25 17 25 49v485q-66 -66 -146 -98q-81 -32 -167 -32q-145 0 -265 83q-68 47 -114 117q-48 72 -70 153q-23 81 -23 171q0 83 22 171q21 83 66 155q43 70 113 117q57 42 122 58q65 17 129 17q99 2 193 -40q85 -36 140 -116v136
h184q-2 -3 -15 -18t-20 -24t-14 -22t-7 -22zM356 146q67 -80 171 -97.5t202.5 25.5t155.5 129v625q-62 96 -154 140t-180 33t-165 -75.5t-113 -170.5q-36 -107 -37 -212q-3 -105 29 -218q27 -101 91 -179z" />
    <glyph glyph-name="r" unicode="r" horiz-adv-x="823" 
d="M171 -2h-40l1 1q26 17 26 50v867q0 9 -7 22t-14 22t-20 24t-15 18h184v-134q55 86 145 125q89 39 188 39q68 0 134 -20q16 -5 29 -10v-69q-62 71 -181 71q-57 0 -114 -17q-54 -16 -101 -50q-43 -31 -72 -75q-28 -44 -28 -95v-718q0 -32 26 -50l2 -1h-28v-2h-115v2z" />
    <glyph glyph-name="s" unicode="s" horiz-adv-x="913" 
d="M173 660q-33 61 -30 128q3 66 39 126q66 112 242 130q186 20 328 -120l-25 -26q-87 90 -213 109q-92 12 -174.5 -18t-110.5 -109q-21 -63 11 -122q31 -62 136 -103q105 -39 166 -64q69 -27 138 -64q76 -37 115 -114q32 -67 29 -143q-5 -73 -41 -135q-34 -62 -95 -97
q-101 -52 -213 -52q-121 -6 -228.5 49t-174.5 156l31 19q61 -93 160.5 -143.5t210.5 -43.5q92 3 149.5 27t94.5 94q29 54 23 113q-5 59 -45 102q-36 40 -89 69q-46 25 -111 50q-39 15 -115 43q-41 14 -103 42q-70 31 -105 97z" />
    <glyph glyph-name="t" unicode="t" horiz-adv-x="718" 
d="M649 106l23 -35q-58 -37 -122 -56q-50 -15 -101 -15q-127 0 -190 75t-63 202v742h-145v38h145v310q0 9 -7 22t-14 22t-20 24t-15 18h184v-396h273v-38h-273q0 -14 -1.5 -386t1.5 -386q-3 -109 41 -161.5t118 -45.5t166 66z" />
    <glyph glyph-name="u" unicode="u" horiz-adv-x="1107" 
d="M155 300v640q0 33 -29 51l-52 33h198v-724q-3 -119 55 -190t143 -79t170.5 14.5t145.5 86.5t60 141v751h116v-1004l-58 80q-16 23 -45 25t-48 -19q-54 -58 -134 -88t-164 -30q-72 0 -133 20q-61 19 -114 60q-50 38 -81 97q-32 63 -30 135z" />
    <glyph glyph-name="u" unicode="&#xfc;" horiz-adv-x="1107" 
d="M155 300v640q0 33 -29 51l-52 33h198v-724q-3 -119 55 -190t143 -79t170.5 14.5t145.5 86.5t60 141v751h116v-1004l-58 80q-16 23 -45 25t-48 -19q-54 -58 -134 -88t-164 -30q-72 0 -133 20q-61 19 -114 60q-50 38 -81 97q-32 63 -30 135z" />
    <glyph glyph-name="u" unicode="&#xfb;" horiz-adv-x="1107" 
d="M155 300v640q0 33 -29 51l-52 33h198v-724q-3 -119 55 -190t143 -79t170.5 14.5t145.5 86.5t60 141v751h116v-1004l-58 80q-16 23 -45 25t-48 -19q-54 -58 -134 -88t-164 -30q-72 0 -133 20q-61 19 -114 60q-50 38 -81 97q-32 63 -30 135z" />
    <glyph glyph-name="u" unicode="&#xfa;" horiz-adv-x="1107" 
d="M155 300v640q0 33 -29 51l-52 33h198v-724q-3 -119 55 -190t143 -79t170.5 14.5t145.5 86.5t60 141v751h116v-1004l-58 80q-16 23 -45 25t-48 -19q-54 -58 -134 -88t-164 -30q-72 0 -133 20q-61 19 -114 60q-50 38 -81 97q-32 63 -30 135z" />
    <glyph glyph-name="u" unicode="&#xf9;" horiz-adv-x="1107" 
d="M155 300v640q0 33 -29 51l-52 33h198v-724q-3 -119 55 -190t143 -79t170.5 14.5t145.5 86.5t60 141v751h116v-1004l-58 80q-16 23 -45 25t-48 -19q-54 -58 -134 -88t-164 -30q-72 0 -133 20q-61 19 -114 60q-50 38 -81 97q-32 63 -30 135z" />
    <glyph glyph-name="v" unicode="v" horiz-adv-x="958" 
d="M109 957q-6 19 -24 29l-60 38h184l320 -837l344 836h11v1h31l-412 -1004h-33z" />
    <glyph glyph-name="w" unicode="w" horiz-adv-x="1454" 
d="M109 957q-6 19 -24 29l-60 38h184l320 -837l218 531l39 94l87 211h11v1h31l-109 -265l219 -572l343 836h12v1h31l-412 -1004h-33l-224 581l-239 -581h-32z" />
    <glyph glyph-name="x" unicode="x" horiz-adv-x="940" 
d="M119 968v1q-7 11 -18 18l-58 37h190l263 -414l-16 -26l276 446l42 -6l-2 -2l-277 -447l307 -482h1q17 -25 41 -51q16 -16 34 -31q-32 1 -94.5 1t-94.5 1h1v1l9 6q-65 102 -114 182q-7 11 -63 101q-7 12 -17 28t-13 21l-7.5 12.5t-6.5 10.5q-10 17 -17 27q-10 12 -37 57
l-273 -439h-83q45 32 87 81l245 393q-11 18 -27 42.5t-40 62.5t-41 64q-50 77 -197 305z" />
    <glyph glyph-name="y" unicode="y" horiz-adv-x="911" 
d="M94 968q-6 14 -19 22l-48 34l181 -1l322 -584l299 588l41 -3h1l-374 -735l-243 -478h-44l242 476z" />
    <glyph glyph-name="y" unicode="&#xff;" horiz-adv-x="911" 
d="M94 968q-6 14 -19 22l-48 34l181 -1l322 -584l299 588l41 -3h1l-374 -735l-243 -478h-44l242 476z" />
    <glyph glyph-name="y" unicode="&#xfd;" horiz-adv-x="911" 
d="M94 968q-6 14 -19 22l-48 34l181 -1l322 -584l299 588l41 -3h1l-374 -735l-243 -478h-44l242 476z" />
    <glyph glyph-name="z" unicode="z" horiz-adv-x="823" 
d="M592 893q19 31 2 61q-18 31 -53 31h-438v39h675l-622 -967h580v-39h-681v39z" />
    <glyph glyph-name="braceleft" unicode="{" horiz-adv-x="589" 
d="M279 693v524q-4 59 11 119q14 62 63 100q34 27 71 36q42 11 78 14l8 1v-55h-7q-27 -1 -62 -10q-31 -8 -55 -27q-40 -31 -48 -79q-9 -46 -4 -98v-525q0 -49 -12 -97q-14 -48 -50 -83l-24 -23l24 -24q38 -37 50 -84q12 -48 12 -97v-528q-5 -49 4 -94q8 -47 48 -78
q25 -22 54 -29q20 -5 64 -11h6v-55l-8 1q-45 5 -78 14q-40 11 -71 36q-47 40 -63 101q-16 59 -11 118v525q3 68 -29 126q-28 46 -111 50h-6v55l6 1q83 11 111 51q29 41 29 125z" />
    <glyph glyph-name="braceright" unicode="}" horiz-adv-x="589" 
d="M311 1217v-524q0 -84 29 -125q28 -40 111 -51l6 -1v-55h-7q-81 -4 -110 -50q-32 -59 -29 -126v-525q3 -62 -10 -118q-16 -61 -63 -101h-1q-31 -25 -72 -36q-33 -9 -78 -14l-7 -1v55h6q42 6 63 11q31 8 55 29q37 28 47 78q9 47 6 94v528q0 53 11 97q12 49 49 84l25 24
l-25 23q-35 34 -49 83q-11 44 -11 97v525q3 50 -6 98q-8 49 -47 79q-24 19 -55 27q-37 9 -63 10h-6v55l7 -1q36 -3 78 -14q39 -9 72 -36q50 -39 64 -100q13 -57 10 -119z" />
    <glyph glyph-name="nonbreakingspace" unicode="&#xa0;" horiz-adv-x="638" 
 />
    <glyph glyph-name="softhyphen" unicode="&#xad;" 
 />
    </font>
</defs>
</svg>
